<?xml version="1.0" encoding="UTF-8"?>
<svg id="Capa_2" data-name="Capa 2" xmlns="http://www.w3.org/2000/svg" viewBox="0 0 956.76 312.75">
  <defs>
    <style>
      .cls-1 {
        fill: #fff;
      }
    </style>
  </defs>
  <g id="Capa_6" data-name="Capa 6">
    <g>
      <g id="Texto">
        <g>
          <path class="cls-1" d="M427.09,73.69h38.58c16.88,0,29.07,10.85,29.07,24.25,0,11.52-8.17,18.89-18.08,22.37,11.65,3.08,22.5,10.58,22.5,24.51,0,16.48-15.27,25.32-33.49,25.32h-38.58v-.4c.67-3.21,2.68-10.85,2.68-18.62v-58.41c0-7.77-2.01-15.4-2.68-18.62v-.4ZM480.4,97.94c0-10.58-6.03-19.42-18.75-19.42h-18.49v39.79h17.55c12.86,0,19.69-8.44,19.69-20.36ZM484.96,144.82c0-13.93-9.64-21.43-23.31-21.43h-18.49v41.93h18.49c16.21,0,23.31-7.5,23.31-20.5Z"/>
          <path class="cls-1" d="M579,144.42c-4.15-9.64-10.31-16.75-18.62-18.62h-13.53v25.32c0,7.77,2.01,15.41,2.81,18.62v.4h-18.89v-.4c.67-3.21,2.68-10.85,2.68-18.62v-58.41c0-7.77-2.01-15.4-2.68-18.62v-.4h37.78c18.62,0,30.94,9.51,30.94,25.45,0,14.87-10.45,23.31-24.78,25.18,6.7,2.01,12.06,6.16,15.81,13.4,8.31,16.88,10.45,24.11,17.95,31.88v.54h-16.21c-3.48-3.62-9.11-16.21-13.26-25.72ZM546.85,78.25v42.73h16.75c12.73,0,21.43-6.7,21.43-21.43s-7.77-21.3-20.5-21.3h-17.68ZM551.94,125.54c-.27.13-.54.13-.8.13.27,0,.54,0,.8-.13Z"/>
          <path class="cls-1" d="M636.74,133.44v-40.72c0-7.77-2.01-15.4-2.81-18.62v-.4h18.89v.4c-.67,3.21-2.68,10.85-2.68,18.62v41.39c0,19.42,9.65,30.81,24.65,30.81,13.13,0,25.99-8.57,25.99-29.87v-35.23c0-10.72-3.75-21.43-4.82-25.45v-.67h15.27v.67c-1.2,4.02-4.96,14.74-4.96,25.45v36.03c0,24.25-15.94,35.9-33.89,35.9s-35.63-11.79-35.63-38.31Z"/>
          <path class="cls-1" d="M754.35,88.43c-.13,1.34-.27,2.81-.27,4.29v51.31c0,10.85,4.02,21.43,5.22,25.59v.67h-15.67v-.67c1.21-4.15,5.22-14.73,5.22-25.59v-51.31c0-7.77-2.95-15.4-4.02-18.49v-.4h17.55l31.35,80.78,31.21-80.91h15.94v.4c-.67,3.21-2.68,10.85-2.68,18.62v58.41c0,7.77,2.01,15.41,2.68,18.62v.4h-18.62v-.4c.67-3.21,2.68-10.85,2.68-18.62v-63.09l-31.48,82.12h-7.5l-31.61-81.71Z"/>
          <path class="cls-1" d="M880.81,147.64l22.24-60.95c1.88-5.36.13-10.72-.94-12.59v-.4h16.34l29.2,76.89c2.95,8.04,5.63,14.2,9.11,19.16v.4h-21.97v-.4c.67-3.62,1.21-11.39-1.74-19.29l-4.96-13.26h-37.78l-3.48,9.51c-3.35,9.51-1.88,18.75-.8,22.91v.54h-15v-.4c2.68-4.15,6.43-12.86,9.78-22.1ZM926.09,132.1l-17.28-45.95-16.61,45.95h33.89Z"/>
        </g>
        <g>
          <path class="cls-1" d="M542.15,233.44l-.04-19.62-9.73,16.35h-1.77l-9.73-16.23v19.51h-3.69v-26.93h3.16l11.23,18.93,11.08-18.93h3.15l.04,26.93h-3.69Z"/>
          <path class="cls-1" d="M577.99,226.71h-14.31l-2.96,6.73h-3.96l12.2-26.93h3.81l12.23,26.93h-4.04l-2.96-6.73ZM576.65,223.63l-5.81-13.2-5.81,13.2h11.62Z"/>
          <path class="cls-1" d="M613.92,233.44l-5.81-8.27c-.54.04-1.12.08-1.69.08h-6.66v8.2h-3.85v-26.93h10.5c7,0,11.23,3.54,11.23,9.39,0,4.16-2.15,7.16-5.92,8.5l6.39,9.04h-4.19ZM613.8,215.9c0-3.85-2.58-6.04-7.5-6.04h-6.54v12.12h6.54c4.92,0,7.5-2.23,7.5-6.08Z"/>
          <path class="cls-1" d="M630.8,206.51h3.85v26.93h-3.85v-26.93Z"/>
          <path class="cls-1" d="M647.18,230.36l1.42-3c2,1.81,5.42,3.12,8.89,3.12,4.66,0,6.66-1.81,6.66-4.16,0-6.58-16.31-2.42-16.31-12.43,0-4.16,3.23-7.7,10.31-7.7,3.16,0,6.43.85,8.66,2.39l-1.27,3.08c-2.35-1.5-5-2.19-7.39-2.19-4.58,0-6.54,1.92-6.54,4.27,0,6.58,16.31,2.46,16.31,12.35,0,4.12-3.31,7.66-10.43,7.66-4.12,0-8.16-1.39-10.31-3.39Z"/>
          <path class="cls-1" d="M708.19,235.9c-1.73,2.04-4.08,3.16-6.77,3.16-3.39,0-6.04-1.46-9.81-5.35-7.73-.42-13.35-6.16-13.35-13.73s6.08-13.77,14.35-13.77,14.27,5.85,14.27,13.77c0,6.69-4.31,11.89-10.58,13.35,1.81,1.92,3.42,2.69,5.16,2.69,1.92,0,3.54-.77,4.92-2.31l1.81,2.19ZM692.61,230.32c5.96,0,10.43-4.42,10.43-10.35s-4.46-10.35-10.43-10.35-10.5,4.42-10.5,10.35,4.46,10.35,10.5,10.35Z"/>
          <path class="cls-1" d="M719.46,221.82v-15.31h3.85v15.16c0,5.96,2.73,8.66,7.58,8.66s7.62-2.69,7.62-8.66v-15.16h3.73v15.31c0,7.81-4.27,11.93-11.39,11.93s-11.39-4.12-11.39-11.93Z"/>
          <path class="cls-1" d="M776.58,230.09v3.35h-19.54v-26.93h19.01v3.35h-15.16v8.27h13.5v3.27h-13.5v8.7h15.7Z"/>
          <path class="cls-1" d="M807.74,233.44l-5.81-8.27c-.54.04-1.12.08-1.69.08h-6.66v8.2h-3.85v-26.93h10.5c7,0,11.23,3.54,11.23,9.39,0,4.16-2.15,7.16-5.92,8.5l6.39,9.04h-4.19ZM807.62,215.9c0-3.85-2.58-6.04-7.5-6.04h-6.54v12.12h6.54c4.92,0,7.5-2.23,7.5-6.08Z"/>
          <path class="cls-1" d="M828.89,199.31h4.69l-6.46,5h-3.46l5.23-5ZM824.62,206.51h3.85v26.93h-3.85v-26.93Z"/>
          <path class="cls-1" d="M860.62,226.71h-14.31l-2.96,6.73h-3.96l12.2-26.93h3.81l12.23,26.93h-4.04l-2.96-6.73ZM859.28,223.63l-5.81-13.2-5.81,13.2h11.62Z"/>
        </g>
      </g>
      <g id="Isotipo">
        <path class="cls-1" d="M74.3,303.41c-14.03-14.51-27.48-38.09-34.97-51.49-.65-1.17-.23-2.65.94-3.3l6.98-3.89c1.17-.65,2.65-.23,3.3.94,7.22,12.93,20.17,35.64,32.97,48.82,2.32,2.39,2.47,6.13.31,8.66h0c-2.47,2.9-6.88,3.01-9.53.27Z"/>
        <path class="cls-1" d="M343.58,142.09C330.36,62.27,264.64,4.25,187.31,4.13V1.38c78.68.12,145.54,59.11,158.98,140.27l-2.71.45Z"/>
        <path class="cls-1" d="M25.87,200.6c-1.77-10.06-2.67-20.39-2.67-30.7C23.2,76.22,96.71,0,187.08,0h.24v5.5h-.24C99.75,5.5,28.7,79.25,28.7,169.9c0,9.99.87,20,2.59,29.75l-5.42.96Z"/>
        <path class="cls-1" d="M39.87,248.83c-7.15-14.3-12.3-29.52-15.33-45.29-.28-1.44.7-2.83,2.14-3.08l3.84-.68c1.43-.25,2.77.7,3.05,2.12,2.87,14.91,7.74,29.31,14.5,42.82l-8.21,4.11Z"/>
        <path class="cls-1" d="M53.17,239.99c-9.17,0-16.63-7.46-16.63-16.63s7.46-16.62,16.63-16.62,16.63,7.46,16.63,16.62-7.46,16.63-16.63,16.63ZM53.17,210.41c-7.14,0-12.96,5.81-12.96,12.95s5.81,12.96,12.96,12.96,12.96-5.81,12.96-12.96-5.81-12.95-12.96-12.95Z"/>
        <circle class="cls-1" cx="52.75" cy="223.58" r="7.48"/>
        <path class="cls-1" d="M345.3,155.51c-3.85,0-6.98-3.13-6.98-6.97s3.13-6.97,6.98-6.97,6.97,3.13,6.97,6.97-3.13,6.97-6.97,6.97ZM345.3,146.15c-1.32,0-2.39,1.07-2.39,2.39s1.07,2.39,2.39,2.39,2.39-1.07,2.39-2.39-1.07-2.39-2.39-2.39Z"/>
        <path class="cls-1" d="M37.14,147.3l-5.91-.37c-1.37-.09-2.39-1.18-2.27-2.45h0c.12-1.27,1.32-2.22,2.69-2.13l5.91.37c1.37.09,2.39,1.18,2.27,2.45h0c-.12,1.27-1.32,2.22-2.69,2.13Z"/>
        <rect class="cls-1" x="55.79" y="76.95" width="4.59" height="10.54" rx="2.29" ry="2.29" transform="translate(-42.55 84.94) rotate(-56.31)"/>
        <rect class="cls-1" x="104.11" y="28.83" width="4.59" height="9.58" rx="2.29" ry="2.29" transform="translate(-1.38 62.5) rotate(-32.53)"/>
        <path class="cls-1" d="M185.03,12.61h0c-1.27,0-2.29-1.03-2.29-2.29v-5.09h4.59s0,5.09,0,5.09c0,1.27-1.03,2.29-2.29,2.29Z"/>
        <path class="cls-1" d="M45.43,209.89c-.09-.23-8.52-23.4-9.72-64.6v-.26s22.9-62.82,22.9-62.82l.23-.22c.35-.33,34.69-32.99,47.74-47.74l.25-.28.36-.12c.4-.13,40.84-13.22,77.56-25.8l.89,2.6c-34.9,11.96-73.16,24.37-77.25,25.7-12.73,14.31-44.37,44.5-47.42,47.4l-22.51,61.72c1.21,40.54,9.46,63.24,9.54,63.46l-2.58.96Z"/>
        <path class="cls-1" d="M31.29,128.24c-.6,0-1.18,0-1.74,0h-.67c-2.24,0-16.12-2.15-23.79-11.64-4.7-5.81-6.15-13.09-4.32-21.64,5.86-27.35,48.37-19.36,50.18-19.01,0,0,0,0,0,0l-.7,3.6c-.41-.08-40.78-7.67-45.89,16.17-1.59,7.41-.38,13.65,3.58,18.56,6.75,8.35,19.28,10.27,20.94,10.27h.71c12.3.12,44.11-1.19,73.71-16.25,12.3-6.26,32.72-18.52,54.33-31.51,40.5-24.33,86.41-51.91,105.02-56.23,32.33-7.51,68.68-12.61,90.79,22.19.39.55,10.53,15.35,5.43,33.82-4.37,15.8-18.43,29.11-41.8,39.57,0,0,0,0,0,0l-1.5-3.35c22.3-9.98,35.67-22.48,39.75-37.15,4.67-16.78-4.84-30.72-4.93-30.86-9.65-15.19-22.88-23.53-40.49-25.57-15.54-1.8-32.1,1.6-46.41,4.92-18.05,4.19-63.69,31.61-103.96,55.8-21.67,13.02-42.14,25.32-54.56,31.63-28.18,14.34-57.6,16.66-73.67,16.66Z"/>
        <path class="cls-1" d="M213.7,270.93c-1.04,0-1.47,1.35-.61,1.93,24.3,16.39,59.77,4.71,60.6-27.6,1.29-1.37,1.66.09,1.82,1.36,1.81,13.89-8.14,25.33-19.26,31.97-.05.03-.1.06-.16.08h0c-1.21.49-.65,2.31.62,2.03,11.63-2.6,23.74-9.04,29.64-18.62,17.39-28.24-19.51-52.75-44.68-33.69-1.07.81-11.24,11.54-7.88,10.46,14.36-10.18,33.16,2.08,25.65,19.25-2.21.44-1.31-1.78-1.36-3.19-.12-3.32.58-5.93-1.03-9.06-3.45-6.73-13.25-8.71-19.77-5.34-3.38,1.75-5.43,5.97-8.72,7.78-.73.4-1.62-.19-1.57-1.03,1.94-29.27,46.73-40.26,62.65-15.68,18.16,28.04-18.18,53.9-39.79,65.5-51.92,27.87-122.01,18.04-162.71-25.22-1.07-1.14-5.28-5.95-6.64-8.91-.41-.89.53-1.8,1.42-1.4,6.16,2.76,10.67,6.05,18.07,6.61,23.87,1.81,34.69-24.71,64.13-22.88,26.73,1.66,50.24,42.05,73.39,11,.24-.33.65-.49,1.05-.42l1.06.2c.6.11,1,.71.83,1.3-1.68,5.7-12.3,13.56-16.75,13.56h-10.03ZM260.79,285.51c.93-.69.23-2.18-.89-1.88-15.07,3.92-29.81,2.23-44.15-4.71-22.43-10.84-35.31-35.8-65.08-28.82-16.25,3.81-27.54,20.52-44.21,21.78-3.66.28-7.22-.14-10.79-.61-.94-.12-1.57.97-.97,1.72,18.15,22.77,33,1.6,51.36-5.5,29.97-11.59,42.4,14.85,65.9,25.32,20.65,9.19,32.99,4.53,48.84-7.29ZM225.25,302.63c1.06-.34.94-1.86-.15-2.05-8.06-1.47-15.95-4.96-22.92-9.01-17.8-10.32-28.8-29.4-52.72-21.59-11.95,3.9-21.61,15.31-34.49,16.46-.95.08-1.31,1.3-.55,1.89,4.41,3.48,10.19,5.67,15.26,7.87.28.12.59.12.86,0,5.9-2.68,12.2-7.58,18.31-9.43,28.54-8.64,36.72,29.11,65.31,19.48l11.11-3.62ZM191.19,307.61c-14.83-6.56-20.84-21.47-39.44-17.93-5.64,1.07-11.04,5.98-16.45,7.85-1.5,1.77,4.04,3.28,5.02,3.67,14.74,5.94,32.77,8.14,48.61,7.31,1.03-.05,2.52.6,2.27-.91Z"/>
        <g>
          <g>
            <path class="cls-1" d="M210.31,201.9l-25.87,5.52c-5.58,7.35-13.04,14.44-21.8,17.84-2.09.81-9.22,4.01-9.96.86l1.73-19.63c-8.03,1.08-18.3-3.83-25.83-1.6-8.21,2.43-20.88,20.62-29.24,26.72-6.07,4.43-12.63,7.48-20.08,8.78,2.87-17.5,3.03-36.8,16.4-49.96-15.42-10.81-19.28-29.82-24.67-46.73,21.94-4.68,34.35,20.18,50.42,27.48,14.12,6.42,30.31-8.55,40.32-17.42-3.09-1.87-7.67-1.58-10.78-2.95-4.23-1.86,2.58-6.79,3.84-8.59,5.8-8.31,8.91-16.15,9.83-26.38,1.26-1.26,19.29-1.32,22.36-1.08,5.66.45,14.42,4.54,18.78,2.38,9.71-4.81-1.46-6.65-4.91-8.92-10.84-7.13,4.95-14.91,9.9-19.12,11.84-10.07,37.01-37.63,53.96-27.34,10.51,6.38.88,20.87,4.18,25.16l14.78,5.41c2.35,2.14-1.2,5.41-3.7,5.06-1.67,2.09,16.24,2.5,17.26,7.91-3.12,6.31-10.84,9.55-13.6,16.82.97.89,17.13-12.05,18.37-4.09,1.97,12.66-25.24,42.24-34.39,50.88-2.03,1.92-11.31,8.66-11.93,10.07-.92,2.08-.21,4.47-.7,6.64-1.44,6.33-4.66,13.54-9.36,18.14-7.16,7.01-6.84-3.41-9.19-8.28-5.77,10.16-14.33,20.94-26.12,23.83v-17.42ZM202.29,105.42c.77.76,2.81,1.17,3.91,1.18,5.87.07,28.74-14.3,36.47-17.62,4.98-2.14,16.77-4.9,20.22-7.28,4.45-3.06,3.49-14.99-2.57-17.37-7.4-2.92-14.95,1.88-20.97,5.74-12.91,8.28-23.65,21.75-36.89,30.02l-1.27,2.32,1.1,3.01ZM264.36,85.49c-2.34-2.13-47.37,19.27-52.2,24.28l2.77,1.9c16.25-8.26,32.74-16.74,50.37-21.61l-.94-4.57ZM291.88,105.66c-3.76-.99-7.55-2.39-11.47-2.75-12.43-1.12-19.11,3.73-30.32,5.39-13.16,1.95-18.5-.48-31.54,6.03-27.56,13.77-42.94,37.38-66.97,53.1-9.08,5.94-13.93,6.27-23.33,9.66-15.37,5.55-11.67,21.5,2.87,23.8,21.49,3.4,48.85,4.74,70.05-.37,2.27-.55,8.84-2.08,10.36-3.16,2.8-1.98,5.65-16.52,14.37-14.73-.43,2.78-3.59,3.77-5.47,5.97-5.52,6.46-6.59,17.08-5.98,25.18,14.28-8.44,21.6-24.17,23.48-40.22l3.56-.11-1.37,11.91,23.37-18.79c-22.66,1.53-42.06-14.8-39.31-38.4.37-3.13,1.95-10.33,5.41-11.09-9.11,23.68,7.71,49.6,34.14,45.15,11.63-1.96,29.03-27.81,32.96-38.54.42-1.15,1.44-3.39.26-4.32-6.24,4.71-17.4,5.84-18.81,14.66-5.09,0,.23-10.76,1.68-13.46,3.06-5.72,8-10.04,12.08-14.95ZM199.31,120.32c-10.18-1.56-20.39-3.58-30.6-1.02-2.26,10.79-5.98,20.21-13.38,28.5,7,2.37,12.21,5.28,15.57-3.65l-8.24-.93c1.86-4.01,7.74.33,11.04-.54,1.9-.5,4.8-4,6.37-5.41-3.41-1.28-6.96-1.7-10.53-2.31-1.53-.27-1.57.56-1.37-1.8,5.28-.32,17.39,3.4,20.15-3.23.67-1.61-4.38-2.46-5.49-2.74-2.92-.74-5.82-.86-8.71-1.4-1.51-.28-1.58.59-1.37-1.8,5.37-1.9,14.52,3.32,18.71,2.75,1.31-.18,9.28-5.2,7.85-6.42ZM121.41,175.33c-16.42-7.37-25.66-26.18-44.9-28.43,4.94,16.13,8.17,33.85,24.74,42.18v1.33c-13.68,11.09-14.84,28.27-17.4,44.48,14.56-3.49,22.5-16.97,32.51-26.6,3.18-3.06,12.94-7.43,1.68-6.62-10.52,5.59-16.92,18.48-28.7,21.3l28.41-24.29-1.49-2.21c-4.19-1.25-16.07,9.68-21.42,10.01-.54-2.25,1.92-2.44,3.4-3.44,4.93-3.31,10.08-5.87,15.45-8.39,1.16-.55,2.33,0,1.3-2.36-1.13-2.59-9.31-.93-11.9-1.39-.05-1.37,3.22-1.58,4.23-1.71,2.09-.28,4.2-.09,6.3-.1l.46-2.29-21.99-11.45c7.47,1.13,14.63,6.16,21.7,9.05l3-3.12-33.87-23.35c8.75-.32,29.75,21.78,35.99,20.02.82-.23,2.8-2.16,2.5-2.6ZM251.55,182.65l-11.82,7.93,2.67,9.48c5.52-3.79,7.13-11.41,9.15-17.41ZM168.15,207.4c-13.79-2.18-10.86,5.19-10.99,15.57,8.41-2.06,15.35-7.93,21.07-14.22.93-2.24-3.87-1.42-4.81-1.14-2.28.68-10.4,9.27-11.68,8.02l6.41-8.24Z"/>
            <path class="cls-1" d="M223.14,150.57c.25,1.88.17,1.5-1.15,2.04-1.9.78-7.2.49-9.89,1.12-9.36,2.19-19.38,6.36-26.48,12.98,3.01,7.74,14.17-2.9,19.48-5.31,4.19-1.9,8.75-3.91,13.46-3.49l-14.68,6.85-10.06,6.45c-.58,1.84,3.34,1.91,4.39,2.02,10.29,1.06,11.75-8.57,21.27-9.81l-12.82,10.55c-.04,3.09,7.5-.07,8.56-.61,5.1-2.59,6.81-9.38,12.5-9.94,1.58,1.57-6.63,10.22-8.3,11.4-10.99,7.73-30.45,1.15-40.21-6.48-.83-2.74,8.46-8.07,10.66-9.33,10.05-5.75,21.56-9.39,33.27-8.42Z"/>
            <path class="cls-1" d="M179.15,175.32c-1.94,3.02-6.48,4.78-9.75,6.28-10.8,4.93-29.39,9.3-41.16,8.43-1.57-.12-3.03.1-4.07-1.43,11.66-.69,23.44-2.13,34.62-5.69,6.86-2.18,13.37-6.56,20.36-7.58Z"/>
            <path class="cls-1" d="M254.31,121.23c2.38-.11,4.61,2.1,6.41-.47-9.5-6.8,6.18-10.76,7.31-1.74,1.29,10.24-13.85,12.21-13.72,2.21Z"/>
            <path class="cls-1" d="M239.63,128.57c-.73,13.63,8.98,25.13,23.32,22.85,1.05-.17,8.19-4.44,6.92-1.33-1.72,4.2-11.98,4.57-15.81,3.92-9.06-1.54-17.78-12.98-17.12-22.14.11-1.56.6-4.02,2.69-3.31Z"/>
          </g>
          <path class="cls-1" d="M260.54,80.19c-4.51,4.59-9.62-4.86-5.59-9,5.5-3.33,8.98,5.56,5.59,9Z"/>
        </g>
        <path class="cls-1" d="M332.28,202.03c-7.31,0-13.25-5.76-13.25-12.84l-.24-17.16,4.42,7.88c.53.94,2.01,2.82,3.31,3.19.35.1.58.43.61.79l.26,2.82c.05.57-.42,1.07-.99,1.02-1.03-.09-1.98-.45-2.82-.94l.03,2.37c0,4.58,3.89,8.28,8.66,8.28,5.91,0,10.73-4.59,10.73-10.24v-31.8h4.59v31.8c0,8.17-6.87,14.82-15.31,14.82Z"/>
      </g>
    </g>
  </g>
</svg>