<?xml version="1.0" encoding="UTF-8"?>
<svg id="Capa_2" data-name="Capa 2" xmlns="http://www.w3.org/2000/svg" viewBox="0 0 664.46 821.55">
  <defs>
    <style>
      .cls-1 {
        fill: #f6f6f6;
      }
    </style>
  </defs>
  <g id="Logo">
    <g>
      <g id="Isotipo">
        <path class="cls-1" d="M137.03,559.54c-25.88-26.76-50.69-70.24-64.5-94.96-1.21-2.16-.43-4.88,1.73-6.09l12.87-7.17c2.16-1.2,4.88-.43,6.09,1.73,13.32,23.85,37.2,65.72,60.81,90.03,4.27,4.4,4.55,11.3.57,15.97h0c-4.55,5.34-12.69,5.54-17.57.5Z"/>
        <path class="cls-1" d="M633.63,262.05C609.25,114.83,488.05,7.83,345.44,7.61V2.54c145.1.22,268.41,109.01,293.2,258.68l-5.01.83Z"/>
        <path class="cls-1" d="M47.71,369.95c-3.27-18.55-4.93-37.6-4.93-56.62C42.78,140.56,178.36,0,345.01,0h.44v10.15h-.44C183.96,10.15,52.94,146.15,52.94,313.32c0,18.43,1.61,36.89,4.77,54.86l-10,1.76Z"/>
        <path class="cls-1" d="M73.53,458.89c-13.19-26.37-22.69-54.44-28.27-83.52-.51-2.66,1.28-5.22,3.95-5.69l7.08-1.25c2.63-.46,5.12,1.28,5.62,3.9,5.29,27.5,14.28,54.05,26.75,78.98l-15.13,7.57Z"/>
        <path class="cls-1" d="M98.06,442.6c-16.91,0-30.66-13.75-30.66-30.66s13.75-30.66,30.66-30.66,30.66,13.75,30.66,30.66-13.75,30.66-30.66,30.66ZM98.06,388.04c-13.17,0-23.89,10.72-23.89,23.89s10.72,23.89,23.89,23.89,23.89-10.72,23.89-23.89-10.72-23.89-23.89-23.89Z"/>
        <circle class="cls-1" cx="97.28" cy="412.33" r="13.8"/>
        <path class="cls-1" d="M636.8,286.79c-7.09,0-12.86-5.77-12.86-12.86s5.77-12.86,12.86-12.86,12.86,5.77,12.86,12.86-5.77,12.86-12.86,12.86ZM636.8,269.53c-2.43,0-4.4,1.97-4.4,4.4s1.98,4.4,4.4,4.4,4.4-1.98,4.4-4.4-1.97-4.4-4.4-4.4Z"/>
        <path class="cls-1" d="M68.5,271.65l-10.9-.69c-2.53-.16-4.4-2.18-4.18-4.51h0c.22-2.33,2.44-4.1,4.97-3.94l10.9.69c2.53.16,4.4,2.18,4.18,4.51h0c-.22,2.33-2.44,4.1-4.97,3.94Z"/>
        <rect class="cls-1" x="102.89" y="141.91" width="8.46" height="19.45" rx="4.23" ry="4.23" transform="translate(-78.47 156.65) rotate(-56.31)"/>
        <rect class="cls-1" x="192" y="53.17" width="8.46" height="17.67" rx="4.23" ry="4.23" transform="translate(-2.55 115.27) rotate(-32.53)"/>
        <path class="cls-1" d="M341.22,23.26h0c-2.34,0-4.23-1.89-4.23-4.23v-9.38h8.46s0,9.38,0,9.38c0,2.34-1.89,4.23-4.23,4.23Z"/>
        <path class="cls-1" d="M83.79,387.08c-.16-.42-15.72-43.15-17.92-119.14v-.49s42.23-115.86,42.23-115.86l.43-.41c.64-.6,63.97-60.83,88.04-88.04l.46-.52.66-.21c.75-.24,75.32-24.37,143.04-47.57l1.64,4.8c-64.37,22.05-134.91,44.94-142.46,47.39-23.48,26.39-81.83,82.07-87.45,87.42l-41.51,113.83c2.23,74.77,17.44,116.62,17.59,117.04l-4.76,1.77Z"/>
        <path class="cls-1" d="M57.71,236.5c-1.11,0-2.18,0-3.22-.02h-1.24c-4.12,0-29.74-3.97-43.88-21.46-8.66-10.71-11.34-24.14-7.96-39.9,10.81-50.45,89.21-35.7,92.54-35.05,0,0,0,0,0,0l-1.3,6.64c-.75-.15-75.21-14.14-84.63,29.83-2.93,13.66-.7,25.18,6.61,34.23,12.45,15.41,35.56,18.94,38.62,18.94h1.31c22.68.23,81.35-2.19,135.94-29.97,22.68-11.54,60.34-34.16,100.2-58.11,74.69-44.87,159.35-95.73,193.67-103.7,59.63-13.86,126.65-23.26,167.43,40.92.72,1.02,19.43,28.31,10.01,62.37-8.05,29.13-33.99,53.68-77.08,72.97,0,0,0,0,0,0l-2.76-6.17c41.12-18.4,65.78-41.45,73.3-68.51,8.61-30.95-8.92-56.65-9.1-56.91-17.8-28.02-42.2-43.4-74.68-47.16-28.65-3.31-59.2,2.95-85.58,9.08-33.28,7.73-117.45,58.3-191.72,102.91-39.97,24.01-77.72,46.69-100.62,58.34-51.97,26.45-106.22,30.73-135.86,30.73Z"/>
        <path class="cls-1" d="M394.1,499.65c-1.91,0-2.71,2.49-1.13,3.56,44.82,30.23,110.23,8.68,111.76-50.9,2.39-2.52,3.06.17,3.36,2.5,3.33,25.61-15.01,46.72-35.52,58.95-.09.06-.19.1-.29.15h0c-2.23.9-1.19,4.27,1.15,3.74,21.45-4.79,43.79-16.68,54.67-34.34,32.08-52.08-35.98-97.28-82.4-62.13-1.98,1.5-20.72,21.28-14.52,19.28,26.47-18.77,61.15,3.83,47.31,35.5-4.08.81-2.42-3.29-2.52-5.88-.23-6.12,1.07-10.93-1.9-16.71-6.36-12.4-24.44-16.07-36.46-9.85-6.23,3.23-10.01,11.01-16.09,14.35-1.35.74-2.99-.35-2.89-1.89,3.57-53.97,86.17-74.25,115.54-28.91,33.5,51.71-33.52,99.39-73.38,120.79-95.75,51.4-225,33.26-300.06-46.51-1.98-2.1-9.74-10.97-12.24-16.43-.75-1.64.97-3.31,2.62-2.57,11.35,5.09,19.67,11.15,33.33,12.19,44.02,3.33,63.97-45.56,118.27-42.2,49.3,3.06,92.65,77.55,135.34,20.29.45-.6,1.2-.91,1.94-.77l1.96.37c1.1.21,1.85,1.32,1.54,2.39-3.1,10.52-22.68,25.01-30.89,25.01h-18.5ZM480.95,526.53c1.71-1.28.42-4.01-1.64-3.48-27.8,7.22-54.97,4.12-81.43-8.68-41.36-20-65.12-66.02-120.03-53.15-29.98,7.03-50.79,37.84-81.53,40.17-6.76.51-13.32-.25-19.91-1.12-1.74-.23-2.89,1.79-1.8,3.16,33.48,41.99,60.85,2.95,94.72-10.15,55.27-21.38,78.19,27.39,121.53,46.69,38.07,16.95,60.84,8.35,90.08-13.45ZM415.41,558.12c1.95-.63,1.74-3.42-.28-3.79-14.87-2.72-29.41-9.15-42.27-16.61-32.82-19.03-53.11-54.23-97.22-39.82-22.04,7.2-39.85,28.24-63.61,30.35-1.76.16-2.41,2.4-1.02,3.49,8.13,6.41,18.79,10.45,28.13,14.52.51.22,1.08.22,1.59,0,10.89-4.95,22.51-13.98,33.76-17.39,52.64-15.93,67.71,53.68,120.44,35.93l20.49-6.67ZM352.59,567.29c-27.35-12.1-38.43-39.59-72.74-33.06-10.4,1.98-20.35,11.03-30.34,14.48-2.76,3.27,7.45,6.05,9.25,6.77,27.18,10.96,60.44,15.01,89.64,13.48,1.9-.1,4.64,1.11,4.18-1.67Z"/>
        <g>
          <g>
            <path class="cls-1" d="M387.85,372.33l-47.71,10.18c-10.29,13.55-24.05,26.62-40.21,32.9-3.86,1.5-17,7.39-18.37,1.58l3.18-36.2c-14.82,1.98-33.74-7.06-47.64-2.95-15.15,4.48-38.5,38.04-53.92,49.29-11.19,8.17-23.29,13.79-37.03,16.2,5.29-32.27,5.59-67.86,30.24-92.14-28.44-19.93-35.55-54.99-45.49-86.18,40.45-8.62,63.35,37.22,92.99,50.69,26.04,11.83,55.9-15.77,74.36-32.12-5.71-3.45-14.14-2.91-19.89-5.43-7.81-3.43,4.76-12.52,7.07-15.83,10.7-15.33,16.43-29.78,18.12-48.65,2.33-2.32,35.58-2.43,41.24-1.99,10.43.82,26.59,8.37,34.63,4.39,17.91-8.87-2.69-12.26-9.06-16.45-20-13.14,9.13-27.5,18.26-35.26,21.83-18.57,68.25-69.39,99.51-50.41,19.38,11.77,1.62,38.48,7.71,46.39l27.26,9.98c4.33,3.95-2.22,9.97-6.82,9.33-3.08,3.86,29.94,4.61,31.83,14.59-5.76,11.63-19.99,17.61-25.08,31.01,1.8,1.64,31.6-22.22,33.88-7.55,3.63,23.35-46.55,77.9-63.42,93.83-3.74,3.53-20.86,15.97-22,18.56-1.7,3.83-.38,8.25-1.29,12.24-2.65,11.68-8.6,24.97-17.26,33.45-13.21,12.94-12.62-6.28-16.96-15.27-10.64,18.74-26.43,38.62-48.18,43.95v-32.12ZM373.07,194.42c1.42,1.4,5.19,2.15,7.22,2.18,10.83.13,53-26.36,67.26-32.5,9.18-3.95,30.92-9.04,37.29-13.42,8.21-5.64,6.43-27.64-4.75-32.04-13.66-5.38-27.57,3.47-38.67,10.59-23.82,15.27-43.61,40.1-68.04,55.37l-2.34,4.28,2.03,5.55ZM487.54,157.65c-4.31-3.93-87.35,35.54-96.27,44.78l5.11,3.5c29.96-15.24,60.38-30.88,92.9-39.86l-1.73-8.43ZM538.28,194.85c-6.94-1.82-13.92-4.41-21.15-5.07-22.92-2.07-35.25,6.88-55.92,9.95-24.28,3.6-34.12-.89-58.17,11.13-50.82,25.39-79.19,68.93-123.5,97.93-16.74,10.95-25.69,11.55-43.03,17.82-28.35,10.24-21.52,39.65,5.29,43.9,39.63,6.27,90.09,8.74,129.18-.69,4.19-1.01,16.3-3.84,19.11-5.82,5.17-3.64,10.42-30.46,26.5-27.16-.78,5.14-6.63,6.96-10.09,11.02-10.18,11.92-12.16,31.5-11.04,46.44,26.34-15.56,39.84-44.57,43.3-74.17l6.56-.2-2.53,21.97,43.1-34.66c-41.8,2.82-77.57-27.29-72.49-70.81.67-5.78,3.59-19.04,9.97-20.46-16.8,43.67,14.22,91.47,62.97,83.27,21.44-3.61,53.55-51.28,60.78-71.07.77-2.11,2.65-6.25.48-7.97-11.52,8.68-32.1,10.76-34.68,27.03-9.39,0,.43-19.84,3.09-24.82,5.65-10.55,14.75-18.52,22.28-27.56ZM367.56,221.89c-18.77-2.87-37.6-6.61-56.43-1.88-4.17,19.89-11.04,37.27-24.68,52.56,12.91,4.38,22.52,9.75,28.72-6.73l-15.2-1.72c3.43-7.4,14.27.62,20.35-1,3.5-.93,8.86-7.38,11.75-9.97-6.3-2.35-12.83-3.13-19.42-4.27-2.83-.49-2.89,1.02-2.53-3.32,9.74-.59,32.08,6.28,37.16-5.95,1.23-2.96-8.08-4.54-10.12-5.06-5.39-1.37-10.73-1.59-16.06-2.57-2.78-.51-2.91,1.08-2.54-3.32,9.9-3.5,26.78,6.12,34.51,5.07,2.42-.33,17.12-9.59,14.49-11.83ZM223.91,323.34c-30.29-13.6-47.32-48.28-82.81-52.42,9.11,29.74,15.07,62.43,45.62,77.79l-.03,2.46c-25.2,20.45-27.35,52.14-32.07,82.03,26.85-6.43,41.49-31.29,59.95-49.06,5.86-5.64,23.87-13.71,3.1-12.21-19.4,10.3-31.2,34.08-52.92,39.29l52.39-44.8-2.74-4.08c-7.72-2.31-29.64,17.86-39.5,18.46-.99-4.15,3.53-4.5,6.28-6.34,9.09-6.11,18.58-10.82,28.49-15.48,2.14-1.01,4.29-.01,2.4-4.36-2.08-4.78-17.17-1.71-21.95-2.57-.1-2.53,5.95-2.91,7.8-3.16,3.86-.53,7.75-.16,11.62-.19l.85-4.23-40.55-21.12c13.77,2.08,26.98,11.35,40.02,16.69l5.53-5.74-62.46-43.07c16.13-.59,54.87,40.16,66.38,36.93,1.52-.43,5.16-3.99,4.61-4.8ZM463.91,336.85l-21.81,14.62,4.92,17.48c10.19-6.99,13.16-21.04,16.88-32.1ZM310.11,382.49c-25.43-4.02-20.03,9.57-20.27,28.71,15.52-3.8,28.31-14.63,38.85-26.22,1.72-4.13-7.14-2.62-8.87-2.1-4.21,1.26-19.19,17.09-21.53,14.79l11.82-15.19Z"/>
            <path class="cls-1" d="M411.51,277.67c.47,3.47.31,2.77-2.11,3.76-3.51,1.43-13.27.9-18.25,2.07-17.25,4.05-35.73,11.74-48.84,23.93,5.56,14.27,26.14-5.36,35.93-9.8,7.73-3.51,16.14-7.2,24.82-6.43l-27.08,12.63-18.54,11.89c-1.07,3.39,6.16,3.52,8.09,3.72,18.97,1.95,21.67-15.8,39.22-18.09l-23.65,19.45c-.07,5.71,13.84-.12,15.79-1.12,9.4-4.78,12.56-17.3,23.06-18.34,2.91,2.9-12.22,18.84-15.31,21.02-20.26,14.26-56.16,2.12-74.15-11.95-1.54-5.06,15.61-14.89,19.65-17.2,18.54-10.6,39.75-17.31,61.35-15.54Z"/>
            <path class="cls-1" d="M330.39,323.33c-3.57,5.56-11.95,8.82-17.99,11.58-19.91,9.1-54.2,17.15-75.91,15.54-2.89-.21-5.58.19-7.5-2.63,21.5-1.28,43.23-3.94,63.85-10.5,12.65-4.03,24.66-12.1,37.55-13.99Z"/>
            <path class="cls-1" d="M468.99,223.58c4.4-.2,8.51,3.87,11.81-.86-17.53-12.54,11.39-19.84,13.49-3.21,2.38,18.89-25.55,22.51-25.3,4.08Z"/>
            <path class="cls-1" d="M441.93,237.1c-1.34,25.14,16.57,46.34,43,42.15,1.94-.31,15.11-8.19,12.77-2.45-3.16,7.75-22.1,8.43-29.16,7.23-16.7-2.84-32.78-23.94-31.57-40.82.21-2.87,1.11-7.42,4.96-6.1Z"/>
          </g>
          <path class="cls-1" d="M480.49,147.89c-8.32,8.46-17.74-8.96-10.31-16.6,10.14-6.14,16.57,10.25,10.31,16.6Z"/>
        </g>
        <path class="cls-1" d="M612.79,372.59c-13.47,0-24.43-10.62-24.43-23.67l-.44-31.65,8.15,14.53c.98,1.73,3.7,5.2,6.1,5.89.64.18,1.07.8,1.13,1.46l.48,5.19c.1,1.05-.77,1.98-1.82,1.88-1.91-.17-3.65-.83-5.2-1.74l.06,4.37c0,8.45,7.17,15.27,15.97,15.27,10.91,0,19.78-8.47,19.78-18.88v-58.64h8.46v58.64c0,15.07-12.67,27.34-28.24,27.34Z"/>
      </g>
      <g id="Texto">
        <g>
          <path class="cls-1" d="M39.48,634.98h43.53c19.04,0,32.79,12.24,32.79,27.36,0,13-9.22,21.31-20.4,25.24,13.15,3.48,25.39,11.94,25.39,27.66,0,18.59-17.23,28.56-37.78,28.56h-43.53v-.45c.76-3.63,3.02-12.24,3.02-21.01v-65.89c0-8.76-2.27-17.38-3.02-21.01v-.45ZM99.63,662.34c0-11.94-6.8-21.91-21.16-21.91h-20.86v44.89h19.8c14.51,0,22.22-9.52,22.22-22.97ZM104.77,715.23c0-15.72-10.88-24.18-26.3-24.18h-20.86v47.3h20.86c18.29,0,26.3-8.46,26.3-23.12Z"/>
          <path class="cls-1" d="M210.86,714.78c-4.68-10.88-11.64-18.89-21.01-21.01h-15.26v28.56c0,8.77,2.27,17.38,3.17,21.01v.45h-21.31v-.45c.76-3.63,3.02-12.24,3.02-21.01v-65.89c0-8.76-2.27-17.38-3.02-21.01v-.45h42.62c21.01,0,34.91,10.73,34.91,28.71,0,16.78-11.79,26.3-27.96,28.41,7.56,2.27,13.6,6.95,17.83,15.11,9.37,19.04,11.79,27.2,20.25,35.97v.6h-18.29c-3.93-4.08-10.28-18.29-14.96-29.02ZM174.59,640.12v48.21h18.89c14.36,0,24.18-7.56,24.18-24.18s-8.77-24.03-23.12-24.03h-19.95ZM180.34,693.47c-.3.15-.6.15-.91.15.3,0,.6,0,.91-.15Z"/>
          <path class="cls-1" d="M276,702.39v-45.94c0-8.76-2.27-17.38-3.17-21.01v-.45h21.31v.45c-.76,3.63-3.02,12.24-3.02,21.01v46.7c0,21.91,10.88,34.76,27.81,34.76,14.81,0,29.32-9.67,29.32-33.7v-39.75c0-12.09-4.23-24.18-5.44-28.72v-.76h17.23v.76c-1.36,4.53-5.59,16.63-5.59,28.72v40.65c0,27.35-17.99,40.5-38.24,40.5s-40.2-13.3-40.2-43.22Z"/>
          <path class="cls-1" d="M408.7,651.61c-.15,1.51-.3,3.17-.3,4.84v57.88c0,12.24,4.53,24.18,5.89,28.86v.76h-17.68v-.76c1.36-4.68,5.89-16.62,5.89-28.86v-57.88c0-8.76-3.32-17.38-4.53-20.86v-.45h19.8l35.36,91.13,35.21-91.28h17.98v.45c-.76,3.63-3.02,12.24-3.02,21.01v65.89c0,8.77,2.27,17.38,3.02,21.01v.45h-21.01v-.45c.76-3.63,3.02-12.24,3.02-21.01v-71.18l-35.52,92.64h-8.46l-35.67-92.19Z"/>
          <path class="cls-1" d="M551.37,718.41l25.09-68.76c2.12-6.05.15-12.09-1.06-14.21v-.45h18.44l32.95,86.75c3.33,9.07,6.35,16.02,10.28,21.61v.45h-24.78v-.45c.76-4.08,1.36-12.85-1.97-21.76l-5.59-14.96h-42.62l-3.93,10.73c-3.78,10.73-2.12,21.16-.91,25.84v.6h-16.93v-.45c3.02-4.68,7.25-14.51,11.03-24.94ZM602.45,700.88l-19.5-51.84-18.74,51.84h38.23Z"/>
        </g>
        <g>
          <path class="cls-1" d="M169.29,815.21l-.04-22.14-10.98,18.45h-2l-10.98-18.32v22.01h-4.17v-30.38h3.56l12.67,21.36,12.5-21.36h3.56l.04,30.38h-4.17Z"/>
          <path class="cls-1" d="M209.73,807.61h-16.15l-3.34,7.6h-4.47l13.76-30.38h4.3l13.8,30.38h-4.56l-3.34-7.6ZM208.21,804.14l-6.56-14.89-6.55,14.89h13.11Z"/>
          <path class="cls-1" d="M250.26,815.21l-6.55-9.33c-.61.04-1.26.09-1.91.09h-7.51v9.25h-4.34v-30.38h11.85c7.9,0,12.67,3.99,12.67,10.59,0,4.69-2.43,8.07-6.68,9.59l7.21,10.2h-4.73ZM250.13,795.41c0-4.34-2.91-6.81-8.46-6.81h-7.38v13.67h7.38c5.56,0,8.46-2.52,8.46-6.86Z"/>
          <path class="cls-1" d="M269.31,784.82h4.34v30.38h-4.34v-30.38Z"/>
          <path class="cls-1" d="M287.79,811.74l1.61-3.39c2.26,2.04,6.12,3.52,10.03,3.52,5.25,0,7.51-2.04,7.51-4.69,0-7.42-18.4-2.73-18.4-14.02,0-4.69,3.65-8.68,11.63-8.68,3.56,0,7.25.96,9.77,2.69l-1.43,3.47c-2.65-1.69-5.64-2.47-8.33-2.47-5.16,0-7.38,2.17-7.38,4.82,0,7.42,18.4,2.78,18.4,13.93,0,4.64-3.73,8.64-11.76,8.64-4.65,0-9.2-1.56-11.63-3.82Z"/>
          <path class="cls-1" d="M356.62,817.99c-1.95,2.3-4.6,3.56-7.64,3.56-3.82,0-6.81-1.65-11.07-6.03-8.72-.48-15.06-6.95-15.06-15.5s6.86-15.54,16.19-15.54,16.1,6.6,16.1,15.54c0,7.55-4.86,13.41-11.94,15.06,2.04,2.17,3.86,3.04,5.82,3.04,2.17,0,3.99-.87,5.56-2.6l2.04,2.47ZM339.04,811.69c6.73,0,11.76-4.99,11.76-11.68s-5.04-11.68-11.76-11.68-11.85,4.99-11.85,11.68,5.04,11.68,11.85,11.68Z"/>
          <path class="cls-1" d="M369.33,802.1v-17.28h4.34v17.1c0,6.73,3.08,9.77,8.55,9.77s8.6-3.04,8.6-9.77v-17.1h4.21v17.28c0,8.81-4.82,13.46-12.85,13.46s-12.85-4.65-12.85-13.46Z"/>
          <path class="cls-1" d="M433.77,811.43v3.78h-22.05v-30.38h21.44v3.78h-17.1v9.33h15.24v3.69h-15.24v9.81h17.71Z"/>
          <path class="cls-1" d="M468.92,815.21l-6.55-9.33c-.61.04-1.26.09-1.91.09h-7.51v9.25h-4.34v-30.38h11.85c7.9,0,12.67,3.99,12.67,10.59,0,4.69-2.43,8.07-6.68,9.59l7.21,10.2h-4.73ZM468.79,795.41c0-4.34-2.91-6.81-8.46-6.81h-7.38v13.67h7.38c5.56,0,8.46-2.52,8.46-6.86Z"/>
          <path class="cls-1" d="M492.79,776.71h5.3l-7.29,5.64h-3.91l5.9-5.64ZM487.97,784.82h4.34v30.38h-4.34v-30.38Z"/>
          <path class="cls-1" d="M528.59,807.61h-16.15l-3.34,7.6h-4.47l13.76-30.38h4.3l13.8,30.38h-4.56l-3.34-7.6ZM527.07,804.14l-6.55-14.89-6.56,14.89h13.11Z"/>
        </g>
      </g>
    </g>
  </g>
</svg>