<?xml version="1.0" encoding="UTF-8"?>
<svg id="Capa_2" data-name="Capa 2" xmlns="http://www.w3.org/2000/svg" viewBox="0 0 935.82 812.32">
  <defs>
    <style>
      .cls-1 {
        fill: #fff;
      }
    </style>
  </defs>
  <g id="Capa_6" data-name="Capa 6">
    <g id="Isotipo">
      <path class="cls-1" d="M193,788.06c-36.45-37.69-71.39-98.92-90.84-133.74-1.7-3.04-.6-6.88,2.44-8.57l18.13-10.1c3.04-1.69,6.87-.61,8.57,2.43,18.77,33.59,52.4,92.57,85.64,126.8,6.02,6.2,6.41,15.92.8,22.49h0c-6.41,7.52-17.88,7.81-24.75.7Z"/>
      <path class="cls-1" d="M892.41,369.07C858.06,161.73,687.37,11.03,486.52,10.72V3.57c204.36.31,378.02,153.53,412.93,364.32l-7.05,1.17Z"/>
      <path class="cls-1" d="M67.19,521.03c-4.6-26.13-6.94-52.96-6.94-79.75C60.26,197.96,251.2,0,485.91,0h.62v14.3h-.62c-226.82,0-411.35,191.55-411.35,426.99,0,25.96,2.26,51.95,6.72,77.27l-14.08,2.48Z"/>
      <path class="cls-1" d="M103.56,646.29c-18.58-37.14-31.96-76.67-39.81-117.63-.72-3.74,1.81-7.35,5.56-8.01l9.97-1.76c3.7-.65,7.2,1.81,7.91,5.5,7.45,38.73,20.11,76.12,37.67,111.23l-21.31,10.66Z"/>
      <path class="cls-1" d="M138.11,623.35c-23.81,0-43.18-19.37-43.18-43.18s19.37-43.18,43.18-43.18,43.18,19.37,43.18,43.18-19.37,43.18-43.18,43.18ZM138.11,546.52c-18.55,0-33.65,15.09-33.65,33.65s15.1,33.65,33.65,33.65,33.65-15.1,33.65-33.65-15.1-33.65-33.65-33.65Z"/>
      <circle class="cls-1" cx="137" cy="580.72" r="19.43"/>
      <path class="cls-1" d="M896.87,403.92c-9.99,0-18.12-8.13-18.12-18.12s8.13-18.11,18.12-18.11,18.11,8.13,18.11,18.11-8.13,18.12-18.11,18.12ZM896.87,379.6c-3.42,0-6.2,2.78-6.2,6.2s2.78,6.2,6.2,6.2,6.2-2.78,6.2-6.2-2.78-6.2-6.2-6.2Z"/>
      <path class="cls-1" d="M96.47,382.58l-15.35-.97c-3.56-.22-6.2-3.07-5.89-6.36h0c.3-3.29,3.44-5.77,7-5.54l15.35.97c3.56.22,6.2,3.07,5.89,6.36h0c-.3,3.29-3.44,5.77-7,5.54Z"/>
      <rect class="cls-1" x="144.91" y="199.87" width="11.91" height="27.39" rx="5.96" ry="5.96" transform="translate(-110.52 220.63) rotate(-56.31)"/>
      <rect class="cls-1" x="270.42" y="74.89" width="11.92" height="24.88" rx="5.96" ry="5.96" transform="translate(-3.59 162.34) rotate(-32.53)"/>
      <path class="cls-1" d="M480.58,32.76h0c-3.29,0-5.96-2.67-5.96-5.96v-13.21h11.92s0,13.21,0,13.21c0,3.29-2.67,5.96-5.96,5.96Z"/>
      <path class="cls-1" d="M118.01,545.17c-.22-.6-22.13-60.77-25.24-167.8l-.02-.68,59.5-163.18.61-.58c.9-.85,90.09-85.68,124-123.99l.65-.73.93-.3c1.05-.34,106.08-34.33,201.45-67l2.32,6.76c-90.65,31.06-190.01,63.3-200.64,66.74-33.07,37.17-115.25,115.59-123.17,123.12l-58.46,160.31c3.14,105.31,24.56,164.25,24.78,164.84l-6.7,2.49Z"/>
      <path class="cls-1" d="M81.28,333.08c-1.56,0-3.07,0-4.53-.02h-1.74c-5.81-.01-41.88-5.59-61.8-30.22-12.2-15.09-15.97-34-11.22-56.19,15.22-71.05,125.64-50.29,130.34-49.37,0,0,0,0,0,0l-1.83,9.36c-1.06-.21-105.92-19.91-119.19,42.01-4.12,19.24-.99,35.46,9.31,48.2,17.54,21.7,50.08,26.67,54.39,26.67l1.84.02c31.94.31,114.57-3.1,191.45-42.22,31.95-16.26,84.98-48.12,141.13-81.84,105.2-63.19,224.43-134.82,272.76-146.05,83.98-19.52,178.38-32.77,235.8,57.63,1.01,1.44,27.36,39.88,14.1,87.84-11.34,41.03-47.87,75.6-108.56,102.77,0,0,0,0-.01,0l-3.89-8.69c57.91-25.92,92.64-58.38,103.23-96.48,12.12-43.58-12.56-79.78-12.81-80.14-25.07-39.46-59.44-61.13-105.18-66.41-40.36-4.67-83.37,4.15-120.53,12.79-46.87,10.89-165.42,82.11-270.02,144.94-56.29,33.82-109.46,65.76-141.71,82.17-73.19,37.25-149.6,43.28-191.35,43.28Z"/>
      <path class="cls-1" d="M555.05,703.7c-2.7,0-3.82,3.51-1.59,5.02,63.12,42.57,155.24,12.23,157.4-71.69,3.36-3.55,4.31.24,4.73,3.53,4.69,36.07-21.13,65.8-50.02,83.03-.13.08-.27.15-.41.21h0c-3.14,1.27-1.68,6.01,1.62,5.27,30.2-6.75,61.67-23.49,76.99-48.37,45.18-73.35-50.67-137-116.04-87.5-2.78,2.11-29.18,29.97-20.45,27.16,37.29-26.43,86.13,5.4,66.63,49.99-5.75,1.14-3.41-4.63-3.54-8.28-.32-8.62,1.51-15.39-2.67-23.54-8.96-17.47-34.42-22.63-51.35-13.87-8.78,4.54-14.1,15.51-22.66,20.21-1.9,1.04-4.21-.5-4.07-2.66,5.03-76.02,121.36-104.57,162.73-40.71,47.18,72.83-47.21,139.99-103.34,170.12-134.86,72.4-316.89,46.85-422.61-65.5-2.79-2.96-13.72-15.45-17.24-23.14-1.06-2.3,1.37-4.66,3.68-3.63,15.99,7.16,27.71,15.71,46.94,17.16,61.99,4.7,90.1-64.17,166.57-59.43,69.43,4.3,130.49,109.22,190.61,28.58.63-.85,1.69-1.28,2.73-1.08l2.76.53c1.55.3,2.61,1.85,2.16,3.37-4.36,14.82-31.95,35.22-43.5,35.22h-26.06ZM677.37,741.56c2.41-1.8.6-5.65-2.31-4.9-39.15,10.18-77.42,5.8-114.68-12.23-58.25-28.17-91.71-92.98-169.05-74.85-42.22,9.9-71.54,53.3-114.82,56.57-9.52.72-18.75-.36-28.04-1.58-2.45-.32-4.07,2.52-2.53,4.46,47.15,59.13,85.7,4.16,133.41-14.29,77.84-30.11,110.13,38.58,171.16,65.75,53.62,23.88,85.69,11.75,126.86-18.94ZM585.05,786.05c2.74-.89,2.44-4.82-.39-5.34-20.94-3.83-41.42-12.89-59.54-23.4-46.23-26.8-74.81-76.37-136.92-56.09-31.04,10.14-56.13,39.77-89.59,42.74-2.47.22-3.39,3.38-1.44,4.91,11.45,9.03,26.46,14.72,39.62,20.45.72.31,1.52.32,2.24,0,15.34-6.97,31.7-19.69,47.55-24.49,74.14-22.44,95.36,75.61,169.62,50.61l28.85-9.4ZM496.59,798.97c-38.52-17.04-54.12-55.75-102.45-46.57-14.65,2.78-28.66,15.53-42.72,20.39-3.89,4.6,10.5,8.52,13.03,9.54,38.29,15.43,85.12,21.13,126.25,18.99,2.68-.14,6.53,1.56,5.89-2.35Z"/>
      <g>
        <g>
          <path class="cls-1" d="M546.25,524.39l-67.19,14.33c-14.5,19.08-33.87,37.5-56.64,46.34-5.43,2.11-23.94,10.41-25.87,2.23l4.48-50.99c-20.87,2.79-47.52-9.95-67.1-4.16-21.33,6.31-54.22,53.57-75.93,69.41-15.76,11.5-32.8,19.42-52.15,22.82,7.45-45.45,7.87-95.58,42.59-129.77-40.06-28.07-50.07-77.44-64.07-121.38,56.98-12.14,89.22,52.42,130.96,71.39,36.68,16.66,78.73-22.21,104.73-45.24-8.03-4.85-19.92-4.1-28.01-7.65-10.99-4.83,6.71-17.63,9.96-22.3,15.06-21.59,23.14-41.94,25.53-68.51,3.28-3.27,50.1-3.43,58.08-2.8,14.69,1.16,37.45,11.79,48.78,6.18,25.23-12.49-3.79-17.27-12.76-23.16-28.16-18.51,12.86-38.73,25.72-49.67,30.75-26.15,96.13-97.73,140.15-71,27.3,16.57,2.28,54.2,10.86,65.34l38.39,14.05c6.1,5.56-3.12,14.05-9.61,13.13-4.34,5.44,42.17,6.49,44.84,20.55-8.11,16.38-28.16,24.8-35.32,43.68,2.53,2.32,44.5-31.29,47.72-10.64,5.11,32.89-65.56,109.72-89.31,132.15-5.27,4.97-29.37,22.5-30.99,26.15-2.39,5.4-.54,11.61-1.81,17.24-3.73,16.45-12.11,35.17-24.31,47.11-18.61,18.22-17.77-8.85-23.88-21.5-14.99,26.4-37.22,54.39-67.85,61.89v-45.24ZM525.42,273.81c2,1.97,7.31,3.03,10.17,3.07,15.25.19,74.65-37.13,94.74-45.77,12.93-5.57,43.55-12.73,52.52-18.9,11.56-7.95,9.06-38.93-6.69-45.12-19.23-7.57-38.83,4.88-54.47,14.91-33.54,21.51-61.42,56.48-95.83,77.98l-3.3,6.02,2.86,7.81ZM686.65,222.04c-6.07-5.54-123.03,50.06-135.59,63.07l7.2,4.93c42.19-21.46,85.03-43.49,130.84-56.14l-2.44-11.87ZM758.11,274.43c-9.78-2.57-19.6-6.21-29.79-7.13-32.29-2.92-49.64,9.69-78.76,14.01-34.19,5.07-48.06-1.26-81.93,15.67-71.58,35.76-111.53,97.08-173.94,137.92-23.57,15.42-36.18,16.27-60.6,25.1-39.92,14.43-30.31,55.85,7.46,61.82,55.81,8.83,126.88,12.31,181.93-.96,5.9-1.42,22.95-5.4,26.91-8.2,7.28-5.13,14.68-42.9,37.32-38.25-1.11,7.23-9.33,9.8-14.22,15.52-14.34,16.79-17.12,44.37-15.54,65.41,37.1-21.91,56.11-62.78,60.99-104.46l9.24-.29-3.57,30.94,60.7-48.81c-58.86,3.97-109.24-38.44-102.09-99.73.95-8.14,5.06-26.82,14.04-28.81-23.67,61.5,20.02,128.82,88.68,117.27,30.2-5.08,75.41-72.23,85.6-100.1,1.09-2.98,3.73-8.81.68-11.22-16.22,12.23-45.21,15.16-48.85,38.07-13.23,0,.6-27.94,4.36-34.95,7.95-14.86,20.77-26.08,31.38-38.82ZM517.67,312.5c-26.44-4.05-52.96-9.31-79.48-2.64-5.88,28.01-15.54,52.5-34.76,74.03,18.18,6.16,31.72,13.73,40.45-9.48l-21.41-2.42c4.83-10.42,20.09.87,28.67-1.41,4.93-1.31,12.47-10.39,16.55-14.05-8.87-3.32-18.07-4.4-27.35-6.01-3.99-.69-4.07,1.44-3.57-4.68,13.71-.83,45.18,8.84,52.34-8.38,1.73-4.17-11.38-6.4-14.25-7.13-7.59-1.93-15.11-2.24-22.62-3.63-3.91-.72-4.1,1.53-3.57-4.68,13.95-4.92,37.72,8.62,48.61,7.14,3.41-.46,24.11-13.51,20.4-16.67ZM315.35,455.39c-42.65-19.15-66.64-68-116.63-73.83,12.83,41.89,21.22,87.93,64.25,109.55l-.04,3.46c-35.49,28.8-38.52,73.43-45.17,115.53,37.82-9.06,58.44-44.07,84.44-69.09,8.26-7.95,33.62-19.3,4.37-17.2-27.33,14.51-43.95,47.99-74.53,55.33l73.79-63.1-3.87-5.75c-10.87-3.25-41.74,25.15-55.63,26-1.39-5.85,4.98-6.34,8.84-8.94,12.8-8.61,26.17-15.23,40.12-21.8,3.01-1.42,6.04-.02,3.38-6.14-2.93-6.73-24.18-2.4-30.92-3.61-.14-3.57,8.37-4.1,10.98-4.45,5.43-.74,10.92-.22,16.37-.27l1.19-5.96-57.11-29.75c19.4,2.93,38,15.99,56.36,23.51l7.79-8.09-87.96-60.66c22.72-.84,77.28,56.56,93.49,52.01,2.14-.6,7.26-5.61,6.49-6.76ZM653.37,474.42l-30.71,20.59,6.94,24.62c14.35-9.85,18.53-29.63,23.77-45.21ZM436.75,538.7c-35.81-5.66-28.21,13.47-28.55,40.44,21.85-5.35,39.87-20.61,54.72-36.93,2.42-5.82-10.05-3.68-12.49-2.95-5.93,1.77-27.02,24.07-30.32,20.83l16.65-21.39Z"/>
          <path class="cls-1" d="M579.57,391.07c.66,4.89.44,3.9-2.98,5.29-4.94,2.02-18.69,1.27-25.7,2.91-24.3,5.7-50.33,16.53-68.78,33.71,7.83,20.1,36.81-7.54,50.61-13.8,10.89-4.94,22.72-10.15,34.96-9.06l-38.14,17.78-26.12,16.75c-1.51,4.77,8.67,4.96,11.4,5.24,26.72,2.75,30.52-22.25,55.24-25.48l-33.3,27.39c-.1,8.04,19.49-.17,22.24-1.57,13.24-6.74,17.68-24.37,32.47-25.83,4.1,4.09-17.21,26.54-21.56,29.6-28.53,20.08-79.1,2.99-104.43-16.83-2.16-7.13,21.98-20.97,27.68-24.23,26.11-14.93,55.99-24.39,86.41-21.88Z"/>
          <path class="cls-1" d="M465.32,455.37c-5.03,7.83-16.83,12.42-25.33,16.3-28.04,12.81-76.33,24.15-106.91,21.89-4.07-.3-7.86.26-10.57-3.7,30.29-1.8,60.88-5.54,89.93-14.79,17.82-5.67,34.73-17.04,52.88-19.7Z"/>
          <path class="cls-1" d="M660.53,314.88c6.19-.28,11.99,5.46,16.64-1.21-24.68-17.66,16.04-27.94,18.99-4.53,3.35,26.6-35.98,31.7-35.63,5.74Z"/>
          <path class="cls-1" d="M622.41,333.93c-1.89,35.41,23.33,65.27,60.57,59.36,2.73-.43,21.28-11.54,17.98-3.45-4.46,10.92-31.12,11.87-41.07,10.18-23.52-4-46.17-33.72-44.46-57.49.29-4.04,1.57-10.45,6.99-8.59Z"/>
        </g>
        <path class="cls-1" d="M676.72,208.28c-11.72,11.91-24.98-12.62-14.53-23.39,14.28-8.65,23.34,14.43,14.53,23.39Z"/>
      </g>
      <path class="cls-1" d="M863.05,524.75c-18.98,0-34.41-14.96-34.41-33.34l-.62-44.57,11.48,20.46c1.38,2.43,5.21,7.33,8.59,8.29.9.26,1.5,1.12,1.59,2.06l.68,7.31c.14,1.48-1.08,2.78-2.56,2.65-2.69-.24-5.14-1.17-7.33-2.45l.09,6.16c0,11.9,10.09,21.51,22.5,21.51,15.36,0,27.86-11.93,27.86-26.59v-82.59h11.92v82.59c0,21.23-17.84,38.51-39.78,38.51Z"/>
    </g>
  </g>
</svg>